<svg width="620" height="240" viewBox="0 0 620 240" fill="none" xmlns="http://www.w3.org/2000/svg">
<g clip-path="url(#clip0_2_120)">
<path d="M307.354 70.2397V138.269H291.224V93.3863L275.78 115.737H267.679L252.598 93.5672V138.269H236.467V70.2397H255.129L271.911 95.3755L288.692 70.2397H307.354Z" fill="black"/>
<path d="M346.875 139.788C336.983 139.788 329.569 137.347 324.632 132.446C319.714 127.528 317.254 120.547 317.254 111.506V70.2397H333.385V111.506C333.385 116.352 334.506 120.005 336.748 122.464C338.991 124.924 342.363 126.153 346.875 126.153C351.36 126.153 354.723 124.924 356.965 122.464C359.208 120.005 360.329 116.352 360.329 111.506V70.2397H376.495V111.506C376.495 120.547 374.036 127.528 369.117 132.446C364.217 137.347 356.803 139.788 346.875 139.788Z" fill="black"/>
<path d="M409.229 139.788C404.455 139.788 400.025 139.372 395.956 138.558C391.879 137.763 387.963 136.479 384.202 134.689V120.15C391.797 124.155 400.134 126.153 409.229 126.153C412.774 126.153 415.36 125.566 417.005 124.381C418.642 123.179 419.465 121.587 419.465 119.607C419.465 117.636 418.723 116.153 417.258 115.159C415.812 114.173 413.19 113.169 409.41 112.157L403.334 110.457C399.736 109.426 396.616 108.242 393.967 106.913C391.336 105.565 389.094 103.54 387.24 100.837C385.378 98.1422 384.455 94.6702 384.455 90.4206C384.455 83.4314 386.589 78.1149 390.857 74.4711C395.143 70.8093 401.182 68.9738 408.976 68.9738C413.651 68.9738 417.747 69.3988 421.273 70.2396C424.79 71.0624 428.407 72.3373 432.123 74.0733V88.106C425.297 84.4441 417.584 82.6086 408.976 82.6086C405.794 82.6086 403.569 83.1511 402.322 84.2361C401.065 85.3211 400.441 86.8763 400.441 88.9016C400.441 90.276 400.739 91.3791 401.345 92.1928C401.942 92.9885 402.873 93.6666 404.13 94.2181C405.378 94.7516 407.258 95.3664 409.772 96.0626L415.993 97.7986C419.799 98.8656 423.081 100.113 425.83 101.56C428.597 102.989 430.893 105.104 432.702 107.925C434.528 110.746 435.45 114.363 435.45 118.775C435.396 125.312 433.045 130.448 428.398 134.182C423.768 137.926 417.376 139.788 409.229 139.788Z" fill="black"/>
<path d="M442.115 70.2397H458.245V138.269H442.115V70.2397Z" fill="black"/>
<path d="M484.276 84.0553V98.956H508.616V112.772H484.276V138.269H468.146V70.2397H513.101V84.0553H484.276Z" fill="black"/>
<path d="M552.963 111.976V138.269H537.158V111.976L514.011 70.2397H530.142L545.043 97.6178L560.052 70.2397H576.218L552.963 111.976Z" fill="black"/>
<path d="M259.87 177.806C257.356 177.806 255.114 177.336 253.143 176.395V174.008C255.141 175.075 257.383 175.6 259.87 175.6C261.316 175.6 262.365 175.301 263.016 174.696C263.685 174.099 264.029 173.303 264.029 172.309C264.029 171.368 263.712 170.672 263.088 170.211C262.483 169.732 261.588 169.325 260.412 168.981L258.64 168.475C257.627 168.186 256.759 167.86 256.036 167.498C255.331 167.119 254.743 166.558 254.264 165.835C253.803 165.111 253.577 164.171 253.577 163.014C253.577 161.16 254.101 159.75 255.168 158.782C256.253 157.824 257.79 157.336 259.797 157.336C260.955 157.336 261.967 157.444 262.835 157.661C263.721 157.878 264.653 158.204 265.62 158.638V160.952C263.857 160.012 261.913 159.542 259.797 159.542C258.513 159.542 257.573 159.849 256.976 160.446C256.398 161.025 256.108 161.838 256.108 162.869C256.126 163.837 256.416 164.551 256.976 165.003C257.528 165.437 258.405 165.835 259.616 166.196L261.425 166.667C262.456 166.956 263.342 167.309 264.065 167.715C264.806 168.104 265.412 168.674 265.873 169.415C266.325 170.139 266.56 171.097 266.56 172.272C266.56 173.99 265.955 175.338 264.752 176.323C263.568 177.318 261.94 177.806 259.87 177.806Z" fill="black"/>
<path d="M273.495 165.437V173.647C273.495 174.352 273.604 174.831 273.821 175.093C274.038 175.338 274.435 175.455 275.014 175.455C275.539 175.455 276.099 175.383 276.678 175.238V177.444C275.9 177.607 275.213 177.697 274.616 177.697C273.287 177.697 272.356 177.426 271.831 176.902C271.298 176.377 271.036 175.473 271.036 174.189V165.437H269.191V163.195H271.036V158.276H273.495V163.195H276.822V165.437H273.495Z" fill="black"/>
<path d="M287.631 162.688V165.003H287.016C285.515 165.003 284.068 165.6 282.676 166.775V177.372H280.253V163.014H282.676V164.605C284.096 163.33 285.542 162.688 287.016 162.688H287.631Z" fill="black"/>
<path d="M292.409 170.392C292.427 171.983 292.816 173.267 293.566 174.225C294.335 175.166 295.556 175.636 297.219 175.636C298.494 175.636 299.877 175.274 301.378 174.551L302.138 176.576C300.547 177.39 298.829 177.806 297.002 177.806C295.483 177.806 294.181 177.49 293.096 176.866C292.029 176.215 291.225 175.329 290.673 174.189C290.112 173.032 289.841 171.694 289.841 170.175C289.841 168.565 290.131 167.191 290.709 166.052C291.288 164.922 292.065 164.063 293.06 163.484C294.046 162.887 295.158 162.58 296.387 162.58C298.268 162.58 299.733 163.177 300.8 164.352C301.885 165.536 302.427 167.227 302.427 169.415V170.392H292.409ZM296.387 164.786C294.235 164.786 292.961 165.97 292.554 168.33H299.859C299.787 167.128 299.462 166.233 298.883 165.654C298.304 165.075 297.472 164.786 296.387 164.786Z" fill="black"/>
<path d="M310.351 163.014C311.87 163.014 313.027 163.267 313.823 163.773C314.619 164.28 315.134 164.967 315.378 165.835C315.64 166.685 315.776 167.752 315.776 169.054V177.372H313.353V175.961C312.702 176.567 312.033 177.01 311.364 177.3C310.713 177.562 310.007 177.697 309.266 177.697C308.344 177.697 307.53 177.499 306.807 177.119C306.083 176.739 305.505 176.178 305.071 175.455C304.655 174.714 304.456 173.828 304.456 172.815C304.456 171.278 304.935 170.084 305.902 169.234C306.861 168.366 308.163 167.932 309.808 167.932C311.11 167.932 312.277 168.213 313.317 168.764C313.317 167.923 313.226 167.263 313.063 166.775C312.919 166.269 312.593 165.889 312.087 165.618C311.599 165.328 310.893 165.184 309.953 165.184H308.036V163.014H310.351ZM309.591 175.6C310.17 175.6 310.785 175.473 311.436 175.202C312.087 174.913 312.72 174.497 313.353 173.936V170.681C312.385 170.202 311.327 169.958 310.17 169.958C309.248 169.958 308.479 170.175 307.855 170.609C307.25 171.043 306.951 171.784 306.951 172.815C306.951 173.81 307.204 174.515 307.711 174.949C308.235 175.383 308.868 175.6 309.591 175.6Z" fill="black"/>
<path d="M335.964 162.688C337.718 162.688 339.011 163.158 339.834 164.099C340.674 165.039 341.099 166.585 341.099 168.728V177.372H338.676V168.728C338.676 167.354 338.441 166.395 337.989 165.835C337.555 165.283 336.768 165.003 335.638 165.003C334.282 165.003 332.935 165.645 331.588 166.92C331.66 167.408 331.696 168.005 331.696 168.728V177.372H329.237V168.728C329.237 167.354 329.02 166.395 328.586 165.835C328.152 165.283 327.356 165.003 326.199 165.003C324.897 165.003 323.577 165.582 322.257 166.739V177.372H319.833V163.014H322.257V164.533C323.649 163.303 325.087 162.688 326.56 162.688C327.718 162.688 328.658 162.896 329.381 163.303C330.123 163.692 330.692 164.307 331.081 165.148C332.673 163.511 334.3 162.688 335.964 162.688Z" fill="black"/>
<path d="M367.077 162.688C368.831 162.688 370.124 163.158 370.947 164.099C371.788 165.039 372.213 166.585 372.213 168.728V177.372H369.79V168.728C369.79 167.354 369.555 166.395 369.103 165.835C368.669 165.283 367.882 165.003 366.752 165.003C365.396 165.003 364.048 165.645 362.701 166.92C362.774 167.408 362.81 168.005 362.81 168.728V177.372H360.35V168.728C360.35 167.354 360.133 166.395 359.699 165.835C359.265 165.283 358.47 165.003 357.312 165.003C356.01 165.003 354.69 165.582 353.37 166.739V177.372H350.947V163.014H353.37V164.533C354.763 163.303 356.2 162.688 357.674 162.688C358.831 162.688 359.772 162.896 360.495 163.303C361.236 163.692 361.806 164.307 362.195 165.148C363.786 163.511 365.414 162.688 367.077 162.688Z" fill="black"/>
<path d="M388.246 163.014V177.372H385.823V175.853C384.394 177.083 382.929 177.697 381.41 177.697C379.647 177.697 378.336 177.227 377.468 176.287C376.618 175.347 376.202 173.819 376.202 171.694V163.014H378.662V171.694C378.662 173.05 378.888 174.008 379.349 174.587C379.801 175.148 380.615 175.419 381.772 175.419C383.119 175.419 384.467 174.831 385.823 173.647V163.014H388.246Z" fill="black"/>
<path d="M397.283 177.806C396.216 177.806 395.276 177.716 394.462 177.553C393.666 177.381 392.816 177.101 391.93 176.685V174.262C393.594 175.184 395.375 175.636 397.283 175.636C398.241 175.636 398.947 175.446 399.381 175.057C399.815 174.678 400.032 174.153 400.032 173.502C400.032 172.878 399.86 172.417 399.525 172.128C399.182 171.838 398.63 171.585 397.862 171.368L396.162 170.97C394.95 170.663 394.001 170.193 393.305 169.56C392.626 168.909 392.292 167.969 392.292 166.739C392.292 165.437 392.708 164.424 393.558 163.701C394.399 162.96 395.637 162.58 397.283 162.58C398.124 162.58 398.91 162.67 399.634 162.833C400.375 163.005 401.117 163.231 401.84 163.52V165.799C401.117 165.491 400.402 165.247 399.706 165.075C399.028 164.885 398.241 164.786 397.355 164.786C396.433 164.786 395.773 164.967 395.366 165.328C394.977 165.672 394.787 166.106 394.787 166.63C394.787 167.236 394.95 167.697 395.294 168.005C395.655 168.294 396.171 168.529 396.849 168.692L398.549 169.09C399.417 169.307 400.122 169.578 400.683 169.885C401.261 170.175 401.704 170.609 402.021 171.187C402.355 171.748 402.527 172.489 402.527 173.43C402.527 174.831 402.039 175.916 401.08 176.685C400.14 177.426 398.874 177.806 397.283 177.806Z" fill="black"/>
<path d="M406.292 156.395H408.715V160.301H406.292V156.395ZM406.292 163.014H408.715V177.372H406.292V163.014Z" fill="black"/>
<path d="M419.484 177.806C417.242 177.779 415.515 177.101 414.312 175.744C413.101 174.37 412.504 172.517 412.504 170.175C412.504 167.842 413.101 165.998 414.312 164.641C415.515 163.294 417.242 162.607 419.484 162.58C420.253 162.58 420.913 162.643 421.473 162.761C422.052 162.887 422.649 163.077 423.282 163.339V165.69C422.649 165.401 422.061 165.202 421.51 165.075C420.949 164.958 420.334 164.894 419.665 164.894C418.047 164.894 416.88 165.383 416.157 166.341C415.434 167.281 415.072 168.547 415.072 170.139C415.072 171.802 415.434 173.122 416.157 174.081C416.88 175.048 418.02 175.546 419.593 175.564C420.822 175.564 422.17 175.193 423.644 174.442L424.403 176.576C422.83 177.39 421.193 177.806 419.484 177.806Z" fill="black"/>
<path d="M437.715 163.014C439.234 163.014 440.391 163.267 441.187 163.773C441.982 164.28 442.498 164.967 442.742 165.835C443.004 166.685 443.14 167.752 443.14 169.054V177.372H440.717V175.961C440.066 176.567 439.396 177.01 438.727 177.3C438.076 177.562 437.371 177.697 436.63 177.697C435.707 177.697 434.894 177.499 434.17 177.119C433.447 176.739 432.868 176.178 432.434 175.455C432.018 174.714 431.82 173.828 431.82 172.815C431.82 171.278 432.299 170.084 433.266 169.234C434.225 168.366 435.527 167.932 437.172 167.932C438.474 167.932 439.641 168.213 440.68 168.764C440.68 167.923 440.59 167.263 440.427 166.775C440.283 166.269 439.957 165.889 439.451 165.618C438.962 165.328 438.257 165.184 437.317 165.184H435.4V163.014H437.715ZM436.955 175.6C437.534 175.6 438.149 175.473 438.8 175.202C439.451 174.913 440.084 174.497 440.717 173.936V170.681C439.749 170.202 438.691 169.958 437.534 169.958C436.612 169.958 435.843 170.175 435.219 170.609C434.613 171.043 434.315 171.784 434.315 172.815C434.315 173.81 434.568 174.515 435.075 174.949C435.599 175.383 436.232 175.6 436.955 175.6Z" fill="black"/>
<path d="M453.996 162.688C455.778 162.688 457.089 163.158 457.939 164.099C458.807 165.039 459.241 166.585 459.241 168.728V177.372H456.781V168.728C456.781 167.381 456.546 166.432 456.094 165.871C455.633 165.292 454.828 165.003 453.671 165.003C452.315 165.003 450.967 165.582 449.62 166.739V177.372H447.197V163.014H449.62V164.533C451.04 163.303 452.496 162.688 453.996 162.688Z" fill="black"/>
<path d="M475.33 163.014L468.965 179.687C468.531 180.862 468.115 181.73 467.735 182.291C467.373 182.869 466.939 183.276 466.433 183.52C465.945 183.755 465.285 183.882 464.444 183.882C463.937 183.882 463.413 183.81 462.889 183.665V181.459C463.341 181.576 463.802 181.64 464.263 181.64C464.842 181.64 465.294 181.459 465.637 181.097C465.972 180.754 466.334 180.084 466.722 179.072L467.41 177.336L461.948 163.014H464.516L468.639 174.117L472.871 163.014H475.33Z" fill="black"/>
<path d="M497.628 163.014L493.216 177.589H490.612L487.032 166.594L483.523 177.589H480.883L476.471 163.014H479.003L482.221 174.406L485.657 163.014H488.442L491.914 174.406L495.097 163.014H497.628Z" fill="black"/>
<path d="M507.394 162.688C509.175 162.688 510.486 163.158 511.336 164.099C512.204 165.039 512.638 166.585 512.638 168.728V177.372H510.178V168.728C510.178 167.381 509.943 166.432 509.491 165.871C509.03 165.292 508.225 165.003 507.068 165.003C505.712 165.003 504.365 165.582 503.017 166.739V177.372H500.594V155.419H503.017V164.533C504.41 163.303 505.875 162.688 507.394 162.688Z" fill="black"/>
<path d="M518.854 170.392C518.872 171.983 519.26 173.267 520.011 174.225C520.779 175.166 522 175.636 523.664 175.636C524.939 175.636 526.322 175.274 527.823 174.551L528.582 176.576C526.991 177.39 525.273 177.806 523.447 177.806C521.928 177.806 520.626 177.49 519.541 176.866C518.474 176.215 517.669 175.329 517.118 174.189C516.557 173.032 516.286 171.694 516.286 170.175C516.286 168.565 516.575 167.191 517.154 166.052C517.732 164.922 518.51 164.063 519.505 163.484C520.49 162.887 521.602 162.58 522.832 162.58C524.713 162.58 526.177 163.177 527.244 164.352C528.329 165.536 528.872 167.227 528.872 169.415V170.392H518.854ZM522.832 164.786C520.68 164.786 519.405 165.97 518.998 168.33H526.304C526.232 167.128 525.906 166.233 525.327 165.654C524.749 165.075 523.917 164.786 522.832 164.786Z" fill="black"/>
<path d="M539.761 162.688V165.003H539.146C537.645 165.003 536.199 165.6 534.806 166.775V177.372H532.383V163.014H534.806V164.605C536.226 163.33 537.673 162.688 539.146 162.688H539.761Z" fill="black"/>
<path d="M544.539 170.392C544.557 171.983 544.946 173.267 545.697 174.225C546.465 175.166 547.686 175.636 549.349 175.636C550.624 175.636 552.008 175.274 553.509 174.551L554.268 176.576C552.677 177.39 550.959 177.806 549.132 177.806C547.614 177.806 546.312 177.49 545.227 176.866C544.16 176.215 543.355 175.329 542.803 174.189C542.243 173.032 541.972 171.694 541.972 170.175C541.972 168.565 542.261 167.191 542.84 166.052C543.418 164.922 544.196 164.063 545.19 163.484C546.176 162.887 547.288 162.58 548.518 162.58C550.398 162.58 551.863 163.177 552.93 164.352C554.015 165.536 554.557 167.227 554.557 169.415V170.392H544.539ZM548.518 164.786C546.366 164.786 545.091 165.97 544.684 168.33H551.99C551.917 167.128 551.592 166.233 551.013 165.654C550.434 165.075 549.603 164.786 548.518 164.786Z" fill="black"/>
<path d="M107.67 96.4689C120.419 96.4689 130.789 106.849 130.789 119.588C130.789 132.337 120.419 142.708 107.67 142.708C94.921 142.708 84.5502 132.337 84.5502 119.588C84.5502 106.849 94.921 96.4689 107.67 96.4689ZM107.67 161.035C130.527 161.035 149.117 142.446 149.117 119.588C149.117 96.7311 130.527 78.1414 107.67 78.1414C84.8125 78.1414 66.2228 96.7311 66.2228 119.588C66.2228 142.446 84.8125 161.035 107.67 161.035Z" fill="black"/>
<path d="M163.086 181.226C160.274 181.226 157.987 178.947 157.987 176.126C157.987 173.314 160.274 171.036 163.086 171.036C165.898 171.036 168.186 173.314 168.186 176.126C168.186 178.947 165.898 181.226 163.086 181.226ZM62.1812 185.276C63.9985 183.522 65.2915 181.235 65.8159 178.676C77.9589 187.32 92.4527 191.976 107.67 191.976C123.285 191.976 138.149 187.066 150.491 177.98C150.871 180.611 152.064 182.98 153.809 184.833C140.762 194.092 124.84 199.544 107.67 199.544C90.78 199.544 75.0927 194.264 62.1812 185.276ZM48.2299 176.126C48.2299 173.314 50.5174 171.036 53.3294 171.036C56.1504 171.036 58.4289 173.314 58.4289 176.126C58.4289 178.947 56.1504 181.226 53.3294 181.226C50.5174 181.226 48.2299 178.947 48.2299 176.126ZM27.8047 119.67C27.8047 101.74 33.7451 85.1759 43.7633 71.8304C45.3998 73.702 47.5789 75.0854 50.0563 75.7544C40.4721 88.2952 35.2822 103.539 35.2822 119.588C35.2822 135.782 40.5535 151.162 50.3095 163.757C47.7778 164.381 45.5445 165.755 43.8537 167.636C33.7813 154.272 27.8047 137.663 27.8047 119.67ZM53.3294 58.3402C56.1504 58.3402 58.4289 60.6368 58.4289 63.4487C58.4289 66.2516 56.1504 68.5482 53.3294 68.5482C50.5174 68.5482 48.2299 66.2516 48.2299 63.4487C48.2299 60.6368 50.5174 58.3402 53.3294 58.3402ZM107.67 39.8048C124.903 39.8048 140.871 45.293 153.936 54.606C152.2 56.3962 150.997 58.6928 150.545 61.2426C138.194 52.1286 123.312 47.2008 107.67 47.2008C92.4255 47.2008 77.8956 51.8844 65.7345 60.5644C65.1559 58.0689 63.8448 55.8628 62.0365 54.1629C74.9842 45.1213 90.7167 39.8048 107.67 39.8048ZM168.186 63.4487C168.186 66.2516 165.898 68.5482 163.086 68.5482C160.274 68.5482 157.987 66.2516 157.987 63.4487C157.987 60.6368 160.274 58.3402 163.086 58.3402C165.898 58.3402 168.186 60.6368 168.186 63.4487ZM53.6006 119.588C53.6006 89.7781 77.8594 65.5193 107.67 65.5193C137.48 65.5193 161.739 89.7781 161.739 119.588C161.739 149.399 137.48 173.658 107.67 173.658C77.8594 173.658 53.6006 149.399 53.6006 119.588ZM171.956 167.003C170.139 165.231 167.797 164.01 165.184 163.576C174.831 150.999 180.057 135.701 180.057 119.588C180.057 103.63 174.931 88.458 165.446 75.9624C167.996 75.4741 170.283 74.2354 172.055 72.4814C181.784 85.7093 187.535 102.03 187.535 119.67C187.535 137.373 181.739 153.748 171.956 167.003ZM193.34 119.67C193.34 100.366 186.992 82.0474 175.292 67.0744C175.636 65.9171 175.826 64.7055 175.826 63.4487C175.826 56.4233 170.112 50.709 163.086 50.709C161.766 50.709 160.491 50.917 159.298 51.2877C144.506 40.076 126.549 34 107.67 34C88.9083 34 71.0601 39.9946 56.3312 51.0707C55.3637 50.8356 54.3692 50.709 53.3294 50.709C46.304 50.709 40.5987 56.4233 40.5987 63.4487C40.5987 64.3348 40.6891 65.2028 40.8609 66.0346C28.6456 81.1975 22 99.9228 22 119.67C22 139.444 28.6547 158.187 40.9061 173.359C40.7072 174.254 40.5987 175.177 40.5987 176.126C40.5987 183.151 46.304 188.866 53.3294 188.866C54.4505 188.866 55.5355 188.721 56.5663 188.45C71.259 199.408 89.0078 205.349 107.67 205.349C126.458 205.349 144.325 199.327 159.081 188.215C160.337 188.64 161.685 188.866 163.086 188.866C170.112 188.866 175.826 183.151 175.826 176.126C175.826 174.815 175.627 173.531 175.247 172.338C186.974 157.346 193.34 139.001 193.34 119.67Z" fill="black"/>
</g>
<defs>
<clipPath id="clip0_2_120">
<rect width="620" height="240" fill="black"/>
</clipPath>
</defs>
</svg>
